<?xml version="1.0" encoding="UTF-8"?>
<!DOCTYPE svg PUBLIC "-//W3C//DTD SVG 1.1//EN" "http://www.w3.org/Graphics/SVG/1.1/DTD/svg11.dtd">
<!-- Creator: CorelDRAW 2019 (64-Bit) -->
<svg xmlns="http://www.w3.org/2000/svg" xml:space="preserve" width="123.057mm" height="17.6316mm" version="1.1" style="shape-rendering:geometricPrecision; text-rendering:geometricPrecision; image-rendering:optimizeQuality; fill-rule:evenodd; clip-rule:evenodd"
viewBox="0 0 15354.01 2199.92"
 xmlns:xlink="http://www.w3.org/1999/xlink"
 xmlns:xodm="http://www.corel.com/coreldraw/odm/2003">
 <defs>
  <style type="text/css">
   <![CDATA[
    .fil0 {fill:#0086C9}
    .fil1 {fill:#2B2A29;fill-rule:nonzero}
   ]]>
  </style>
 </defs>
 <g id="Layer_x0020_1">
  <metadata id="CorelCorpID_0Corel-Layer"/>
  <path class="fil0" d="M1298.17 2084.59c28.26,-47.66 9.11,-20.76 40.04,-59.9l109.27 -143.8c53.46,-86.84 67.5,-122.55 135.35,-187.57l213.25 97.38c-48.15,154.3 -317.47,264.47 -497.91,293.89zm-873.57 -289.94l209.75 -104.71 286.28 394.65c-124.42,-20.29 -210.39,-59.05 -302.62,-106.89 -33.05,-17.14 -99.57,-57.25 -120.13,-74.31 -69.22,-57.47 -66.37,-100.23 -73.28,-108.74zm732.22 238.34l7.64 -423 282.1 31.29c-20.01,120.52 -103.73,232.15 -173.17,316.6 -55.01,69.57 -57.71,67.3 -116.56,75.11zm-383.05 -382.65l268.87 -51.01 18.97 433.66c-68.4,-17.18 -75.32,-19.04 -104.16,-58.93 -10.28,-10.72 -51.67,-73.86 -68.94,-97.11 -55.52,-74.8 -98.71,-116.19 -114.74,-226.61zm837.64 -78.48c20.06,-143.99 51.76,-235.72 71.28,-402.66 142.43,-21.09 288.88,-14.46 420.37,-8.22 10.34,192.93 -81.65,453.83 -213.88,556.47 -108.55,-23.28 -206.55,-84.16 -277.77,-145.58zm-441.83 -420.88l410.95 6.14c5.61,117.72 -20.3,289.73 -76,365.77 -77.78,31.77 -250.25,-3.76 -343.62,-29.86l8.67 -342.05zm-469.9 359.19c-46.27,-51.04 -64.91,-279.8 -61.42,-358.87l418.16 6.81 -3.82 334.94c-79.01,23.38 -292.69,83.57 -352.92,17.12zm-92.29 61.69c-71.22,61.42 -169.22,122.3 -277.77,145.58 -132.23,-102.64 -224.23,-363.53 -213.88,-556.47 149.76,-2.32 223.1,-18.63 420.37,8.22 19.53,166.94 51.23,258.68 71.28,402.66zm879.49 -962c59.92,123.46 100.32,277.93 93.65,435.69l-415.58 -6.68 8.35 -372.92 313.58 -56.1zm-848.62 429.88c-6.66,-151.91 33.81,-306.53 94.25,-432.96l323.74 55.44 -7.04 383.66 -410.96 -6.14zm1223.07 -598.22c146.34,105.24 252.79,388.48 241.68,594.35 -149.8,13.74 -252.49,9.53 -420.49,-8.04l-75.03 -459.11 253.84 -127.2zm-1745.54 594.35c-11.1,-205.87 95.34,-489.1 242.62,-596.21l252.62 129.63 -74.75 458.55c-164.9,20.52 -268.03,11.7 -420.49,8.04zm1053.32 -875.66c80.63,26.69 174.99,167.98 221.71,240.96 104.28,162.89 -43.06,150.11 -229.43,140.97l7.72 -381.93zm-117.85 381.94c-180.22,9.13 -327.56,21.91 -223.28,-140.98 46.71,-72.98 141.08,-214.27 229.26,-240.96l-5.98 381.94zm247.37 -429.64c168.69,26.45 377.46,119.22 473.36,233.98 -42.15,67.88 -105.59,97.53 -217,122.85l-256.36 -356.83zm-851.83 233.98c95.91,-114.76 304.67,-207.53 473.35,-233.98l-256.34 356.83c-111.41,-25.32 -174.84,-54.97 -217,-122.85zm-328.02 1238.56c521.1,1038.93 2072.03,677.58 2098.49,-458.07 9.46,-406.08 -216.05,-784.15 -529.26,-970.75 -391.33,-233.14 -745.61,-157.01 -989.03,-79.35 -280.86,111.05 -459.68,284.55 -589.31,553.97 -150.15,312.08 -145.22,646.52 9.1,954.2z"/>
  <path class="fil1" d="M3076.2 1587.53l0 -846.46 171.41 0 0 333.39 333.39 0 0 -333.39 171.42 0 0 846.46 -171.42 0 0 -370.03 -333.39 0 0 370.03 -171.41 0zm814.73 -314.27c0,-53.99 13.2,-106.19 39.8,-156.64 26.6,-50.64 64.23,-89.06 112.91,-115.66 48.66,-26.6 102.85,-39.99 162.94,-39.99 92.81,0 168.67,30.14 227.97,90.43 59.3,60.49 88.86,136.55 88.86,228.76 0,93 -29.95,170.04 -89.65,231.13 -59.9,61.08 -135.16,91.62 -226,91.62 -56.16,0 -109.75,-12.81 -160.78,-38.23 -50.83,-25.42 -89.65,-62.66 -116.25,-111.91 -26.6,-49.07 -39.8,-108.96 -39.8,-179.51zm166.69 8.67c0,60.89 14.39,107.58 43.15,139.89 28.96,32.52 64.43,48.67 106.79,48.67 42.17,0 77.63,-16.16 106.21,-48.67 28.57,-32.32 42.95,-79.4 42.95,-141.08 0,-60.09 -14.37,-106.39 -42.95,-138.71 -28.57,-32.52 -64.03,-48.66 -106.21,-48.66 -42.36,0 -77.83,16.15 -106.79,48.66 -28.76,32.32 -43.15,79.02 -43.15,139.89zm594.45 -307.96l355.45 0c72.9,0 127.28,13.2 163.54,39.8 36.26,26.6 54.38,66.79 54.38,120.38 0,34.29 -9.84,64.23 -29.75,89.66 -19.7,25.42 -44.73,42.36 -74.68,50.83 42.16,10.44 73.69,29.75 94.58,58.32 20.69,28.57 31.13,59.7 31.13,93.59 0,47.69 -17.53,86.5 -52.6,116.25 -35.07,29.76 -86.9,44.73 -155.47,44.73l-386.58 0 0 -613.56zm161.95 255.36l105.22 0c50.83,0 87.49,-6.31 110.15,-19.11 22.66,-12.8 34.09,-32.9 34.09,-60.29 0,-26.01 -10.64,-44.33 -31.73,-55.37 -21.07,-11.03 -58.52,-16.54 -112.51,-16.54l-105.22 0 0 151.32zm0 254.17l128.86 0c46.5,0 80.39,-5.51 101.68,-16.74 21.27,-11.23 31.92,-31.13 31.92,-60.1 0,-30.14 -12.22,-50.83 -36.65,-62.06 -24.24,-11.43 -71.72,-17.14 -142.26,-17.14l-83.55 0 0 156.05zm510.13 -210.24c0,-53.99 13.2,-106.19 39.8,-156.64 26.6,-50.64 64.23,-89.06 112.91,-115.66 48.66,-26.6 102.85,-39.99 162.94,-39.99 92.81,0 168.67,30.14 227.97,90.43 59.3,60.49 88.86,136.55 88.86,228.76 0,93 -29.95,170.04 -89.65,231.13 -59.9,61.08 -135.16,91.62 -226,91.62 -56.16,0 -109.75,-12.81 -160.78,-38.23 -50.83,-25.42 -89.65,-62.66 -116.25,-111.91 -26.6,-49.07 -39.8,-108.96 -39.8,-179.51zm166.69 8.67c0,60.89 14.39,107.58 43.15,139.89 28.96,32.52 64.43,48.67 106.79,48.67 42.17,0 77.63,-16.16 106.21,-48.67 28.57,-32.32 42.95,-79.4 42.95,-141.08 0,-60.09 -14.37,-106.39 -42.95,-138.71 -28.57,-32.52 -64.03,-48.66 -106.21,-48.66 -42.36,0 -77.83,16.15 -106.79,48.66 -28.76,32.32 -43.15,79.02 -43.15,139.89zm1112.05 -125.91l-159.6 28.37c-5.33,-31.72 -17.54,-55.56 -36.66,-71.72 -19.1,-15.96 -43.73,-24.03 -74.08,-24.03 -40.39,0 -72.7,13.99 -96.75,41.96 -24.03,27.99 -36.06,74.68 -36.06,140.29 0,72.9 12.22,124.32 36.65,154.47 24.44,30.16 57.15,45.13 98.13,45.13 30.73,0 55.96,-8.87 75.46,-26.4 19.7,-17.54 33.5,-47.69 41.57,-90.63l159.6 27.19c-16.54,73.29 -48.27,128.66 -95.16,166.1 -46.9,37.44 -109.75,56.16 -188.77,56.16 -89.45,0 -160.97,-28.37 -214.17,-84.92 -53.4,-56.75 -80,-135.18 -80,-235.46 0,-101.48 26.8,-180.29 80.2,-236.84 53.39,-56.55 125.71,-84.72 216.93,-84.72 74.49,0 133.79,16.15 177.92,48.26 43.94,32.13 75.46,80.99 94.78,146.79zm49.85 -182.05l554.46 0 0 131.22 -196.24 0 0 482.34 -161.97 0 0 -482.34 -196.25 0 0 -131.22zm645.09 0l161.97 0 0 224.61 234.08 0 0 -224.61 161.95 0 0 613.56 -161.95 0 0 -257.72 -234.08 0 0 257.72 -161.97 0 0 -613.56zm683.32 299.29c0,-53.99 13.2,-106.19 39.8,-156.64 26.6,-50.64 64.23,-89.06 112.91,-115.66 48.66,-26.6 102.85,-39.99 162.94,-39.99 92.81,0 168.67,30.14 227.97,90.43 59.3,60.49 88.86,136.55 88.86,228.76 0,93 -29.95,170.04 -89.65,231.13 -59.9,61.08 -135.16,91.62 -226,91.62 -56.16,0 -109.75,-12.81 -160.78,-38.23 -50.83,-25.42 -89.65,-62.66 -116.25,-111.91 -26.6,-49.07 -39.8,-108.96 -39.8,-179.51zm166.69 8.67c0,60.89 14.39,107.58 43.15,139.89 28.96,32.52 64.43,48.67 106.79,48.67 42.17,0 77.63,-16.16 106.21,-48.67 28.57,-32.32 42.95,-79.4 42.95,-141.08 0,-60.09 -14.37,-106.39 -42.95,-138.71 -28.57,-32.52 -64.03,-48.66 -106.21,-48.66 -42.36,0 -77.83,16.15 -106.79,48.66 -28.76,32.32 -43.15,79.02 -43.15,139.89zm947.93 111.72l161.97 27.19c-20.69,59.32 -53.6,104.43 -98.32,135.56 -44.93,30.93 -101.08,46.5 -168.27,46.5 -106.6,0 -185.61,-34.87 -236.64,-104.63 -40.39,-55.95 -60.69,-126.49 -60.69,-211.81 0,-101.66 26.6,-181.47 79.6,-239 53,-57.73 120.19,-86.49 201.37,-86.49 91.03,0 162.95,30.14 215.75,90.43 52.6,60.29 77.82,152.7 75.46,277.23l-405.49 0c1.17,48.07 14.19,85.51 39.2,112.31 24.83,26.8 55.96,40.2 93,40.2 25.42,0 46.7,-6.9 63.83,-20.7 17.34,-13.79 30.34,-36.05 39.22,-66.79zm9.46 -164.32c-1.19,-47.09 -13.2,-82.96 -36.26,-107.39 -23.05,-24.63 -51.03,-36.85 -84.13,-36.85 -35.26,0 -64.43,13.01 -87.48,38.82 -23.06,25.82 -34.29,61.09 -33.89,105.42l241.76 0zm742.43 -66.2l-146.59 -26.01c16.56,-59.89 45.13,-104.23 85.52,-132.99 40.39,-28.77 100.49,-43.15 180.1,-43.15 72.31,0 126.29,8.47 161.77,25.6 35.26,17.14 60.29,38.82 74.68,65.22 14.37,26.41 21.67,74.69 21.67,145.22l-2.37 189.15c0,53.79 2.57,93.59 7.69,119.21 5.13,25.62 14.77,53 28.96,82.16l-160.78 0c-4.13,-10.64 -9.46,-26.4 -15.56,-47.29 -2.56,-9.66 -4.53,-15.96 -5.71,-18.92 -27.59,27.19 -57.15,47.49 -88.66,61.08 -31.53,13.6 -65.03,20.5 -100.69,20.5 -62.85,0 -112.51,-17.14 -148.77,-51.43 -36.25,-34.09 -54.38,-77.43 -54.38,-129.85 0,-34.47 8.27,-65.41 24.83,-92.61 16.54,-26.99 39.6,-47.87 69.55,-62.26 29.76,-14.39 72.7,-26.99 128.86,-37.83 75.66,-14.19 128.27,-27.59 157.42,-39.8l0 -16.35c0,-31.53 -7.67,-53.99 -23.05,-67.59 -15.57,-13.4 -44.73,-20.1 -87.49,-20.1 -28.96,0 -51.42,5.71 -67.58,17.34 -16.36,11.43 -29.36,31.72 -39.42,60.69zm217.53 131.22c-20.69,6.9 -53.59,15.17 -98.71,24.83 -44.93,9.66 -74.48,19.11 -88.28,28.17 -21.09,15.17 -31.72,34.09 -31.72,57.15 0,22.85 8.47,42.36 25.42,58.9 16.94,16.56 38.42,24.83 64.63,24.83 29.16,0 57.13,-9.66 83.73,-28.77 19.5,-14.77 32.52,-32.5 38.62,-53.79 4.14,-13.79 6.3,-40.19 6.3,-79.01l0 -32.32zm312.3 -320.38l414.96 0 0 131.22 -253 0 0 482.34 -161.97 0 0 -613.56zm854.15 419.68l161.97 27.19c-20.69,59.32 -53.6,104.43 -98.32,135.56 -44.93,30.93 -101.08,46.5 -168.27,46.5 -106.6,0 -185.61,-34.87 -236.64,-104.63 -40.39,-55.95 -60.69,-126.49 -60.69,-211.81 0,-101.66 26.6,-181.47 79.6,-239 53,-57.73 120.19,-86.49 201.37,-86.49 91.03,0 162.95,30.14 215.75,90.43 52.6,60.29 77.82,152.7 75.46,277.23l-405.49 0c1.17,48.07 14.19,85.51 39.2,112.31 24.83,26.8 55.96,40.2 93,40.2 25.42,0 46.7,-6.9 63.83,-20.7 17.34,-13.79 30.34,-36.05 39.22,-66.79zm9.46 -164.32c-1.19,-47.09 -13.2,-82.96 -36.26,-107.39 -23.05,-24.63 -51.03,-36.85 -84.13,-36.85 -35.26,0 -64.43,13.01 -87.48,38.82 -23.06,25.82 -34.29,61.09 -33.89,105.42l241.76 0zm286.29 -255.36l161.97 0 0 224.61 234.08 0 0 -224.61 161.95 0 0 613.56 -161.95 0 0 -257.72 -234.08 0 0 257.72 -161.97 0 0 -613.56zm647.85 0l554.46 0 0 131.22 -196.24 0 0 482.34 -161.97 0 0 -482.34 -196.25 0 0 -131.22zm1170.98 182.05l-159.6 28.37c-5.33,-31.72 -17.54,-55.56 -36.66,-71.72 -19.1,-15.96 -43.73,-24.03 -74.08,-24.03 -40.39,0 -72.7,13.99 -96.75,41.96 -24.03,27.99 -36.06,74.68 -36.06,140.29 0,72.9 12.22,124.32 36.65,154.47 24.44,30.16 57.15,45.13 98.13,45.13 30.73,0 55.96,-8.87 75.46,-26.4 19.7,-17.54 33.5,-47.69 41.57,-90.63l159.6 27.19c-16.54,73.29 -48.27,128.66 -95.16,166.1 -46.9,37.44 -109.75,56.16 -188.77,56.16 -89.45,0 -160.97,-28.37 -214.17,-84.92 -53.4,-56.75 -80,-135.18 -80,-235.46 0,-101.48 26.8,-180.29 80.2,-236.84 53.39,-56.55 125.71,-84.72 216.93,-84.72 74.49,0 133.79,16.15 177.92,48.26 43.94,32.13 75.46,80.99 94.78,146.79zm49.85 -182.05l554.46 0 0 131.22 -196.24 0 0 482.34 -161.97 0 0 -482.34 -196.25 0 0 -131.22zm653.38 0l355.45 0c72.9,0 127.28,13.2 163.54,39.8 36.26,26.6 54.38,66.79 54.38,120.38 0,34.29 -9.84,64.23 -29.75,89.66 -19.7,25.42 -44.73,42.36 -74.68,50.83 42.16,10.44 73.69,29.75 94.58,58.32 20.69,28.57 31.13,59.7 31.13,93.59 0,47.69 -17.53,86.5 -52.6,116.25 -35.07,29.76 -86.9,44.73 -155.47,44.73l-386.58 0 0 -613.56zm161.95 255.36l105.22 0c50.83,0 87.49,-6.31 110.15,-19.11 22.66,-12.8 34.09,-32.9 34.09,-60.29 0,-26.01 -10.64,-44.33 -31.73,-55.37 -21.07,-11.03 -58.52,-16.54 -112.51,-16.54l-105.22 0 0 151.32zm0 254.17l128.86 0c46.5,0 80.39,-5.51 101.68,-16.74 21.27,-11.23 31.92,-31.13 31.92,-60.1 0,-30.14 -12.22,-50.83 -36.65,-62.06 -24.24,-11.43 -71.72,-17.14 -142.26,-17.14l-83.55 0 0 156.05zm510.13 -210.24c0,-53.99 13.2,-106.19 39.8,-156.64 26.6,-50.64 64.23,-89.06 112.91,-115.66 48.66,-26.6 102.85,-39.99 162.94,-39.99 92.81,0 168.67,30.14 227.97,90.43 59.3,60.49 88.86,136.55 88.86,228.76 0,93 -29.95,170.04 -89.65,231.13 -59.9,61.08 -135.16,91.62 -226,91.62 -56.16,0 -109.75,-12.81 -160.78,-38.23 -50.83,-25.42 -89.65,-62.66 -116.25,-111.91 -26.6,-49.07 -39.8,-108.96 -39.8,-179.51zm166.69 8.67c0,60.89 14.39,107.58 43.15,139.89 28.96,32.52 64.43,48.67 106.79,48.67 42.17,0 77.63,-16.16 106.21,-48.67 28.57,-32.32 42.95,-79.4 42.95,-141.08 0,-60.09 -14.37,-106.39 -42.95,-138.71 -28.57,-32.52 -64.03,-48.66 -106.21,-48.66 -42.36,0 -77.83,16.15 -106.79,48.66 -28.76,32.32 -43.15,79.02 -43.15,139.89z"/>
 </g>
</svg>
