<?xml version="1.0" encoding="UTF-8"?>
<!DOCTYPE svg PUBLIC "-//W3C//DTD SVG 1.1//EN" "http://www.w3.org/Graphics/SVG/1.1/DTD/svg11.dtd">
<!-- Creator: CorelDRAW 2019 (64-Bit) -->
<svg xmlns="http://www.w3.org/2000/svg" xml:space="preserve" width="84.2851mm" height="27.4291mm" version="1.1" style="shape-rendering:geometricPrecision; text-rendering:geometricPrecision; image-rendering:optimizeQuality; fill-rule:evenodd; clip-rule:evenodd"
viewBox="0 0 6654.21 2165.49"
 xmlns:xlink="http://www.w3.org/1999/xlink"
 xmlns:xodm="http://www.corel.com/coreldraw/odm/2003">
 <defs>
  <style type="text/css">
   <![CDATA[
    .fil0 {fill:#0086C9}
    .fil1 {fill:#2B2A29;fill-rule:nonzero}
   ]]>
  </style>
 </defs>
 <g id="Layer_x0020_1">
  <metadata id="CorelCorpID_0Corel-Layer"/>
  <path class="fil0" d="M1277.85 2051.97c27.82,-46.92 8.97,-20.43 39.42,-58.97l107.57 -141.55c52.62,-85.48 66.44,-120.63 133.23,-184.64l209.92 95.87c-47.39,151.89 -312.5,260.33 -490.13,289.28zm-859.89 -285.41l206.47 -103.07 281.79 388.48c-122.48,-19.97 -207.1,-58.13 -297.89,-105.22 -32.53,-16.86 -98.01,-56.35 -118.24,-73.15 -68.15,-56.57 -65.33,-98.66 -72.13,-107.04zm720.76 234.6l7.52 -416.38 277.69 30.81c-19.7,118.63 -102.12,228.52 -170.47,311.63 -54.16,68.48 -56.8,66.25 -114.74,73.94zm-377.05 -376.66l264.65 -50.2 18.68 426.87c-67.34,-16.91 -74.15,-18.75 -102.53,-58 -10.12,-10.56 -50.87,-72.71 -67.86,-95.6 -54.66,-73.63 -97.15,-114.37 -112.94,-223.06zm824.53 -77.25c19.75,-141.74 50.95,-232.04 70.17,-396.36 140.21,-20.76 284.36,-14.23 413.79,-8.09 10.18,189.91 -80.37,446.73 -210.54,547.75 -106.86,-22.92 -203.31,-82.83 -273.42,-143.3zm-434.91 -414.3l404.52 6.05c5.53,115.88 -19.99,285.2 -74.81,360.05 -76.57,31.26 -246.34,-3.7 -338.24,-29.39l8.53 -336.7zm-462.55 353.58c-45.54,-50.25 -63.89,-275.42 -60.46,-353.26l411.62 6.7 -3.76 329.7c-77.77,23.01 -288.12,82.26 -347.4,16.86zm-90.85 60.72c-70.11,60.47 -166.56,120.38 -273.42,143.3 -130.17,-101.02 -220.72,-357.84 -210.54,-547.75 147.42,-2.28 219.61,-18.34 413.79,8.09 19.22,164.32 50.42,254.63 70.16,396.36zm865.74 -946.94c58.97,121.53 98.75,273.57 92.19,428.87l-409.08 -6.56 8.22 -367.1 308.67 -55.21zm-835.34 423.14c-6.56,-149.53 33.28,-301.73 92.76,-426.18l318.68 54.57 -6.93 377.66 -404.52 -6.05zm1203.93 -588.86c144.05,103.6 248.83,382.4 237.9,585.06 -147.45,13.52 -248.54,9.38 -413.91,-7.92l-73.86 -451.93 249.87 -125.21zm-1718.23 585.06c-10.93,-202.65 93.85,-481.46 238.82,-586.88l248.67 127.6 -73.57 451.37c-162.31,20.21 -263.84,11.52 -413.91,7.92zm1036.83 -861.96c79.37,26.27 172.25,165.34 218.24,237.19 102.65,160.34 -42.38,147.76 -225.83,138.76l7.59 -375.95zm-116 375.95c-177.41,8.99 -322.43,21.57 -219.79,-138.77 45.99,-71.84 138.87,-210.91 225.66,-237.19l-5.87 375.95zm243.5 -422.91c166.05,26.03 371.55,117.35 465.96,230.33 -41.5,66.81 -103.94,96 -213.61,120.92l-252.34 -351.24zm-838.51 230.33c94.41,-112.98 299.9,-204.3 465.95,-230.33l-252.33 351.24c-109.68,-24.92 -172.12,-54.11 -213.62,-120.92zm-322.88 1219.17c512.94,1022.68 2039.61,666.98 2065.66,-450.9 9.32,-399.73 -212.67,-771.89 -520.98,-955.56 -385.21,-229.49 -733.94,-154.55 -973.54,-78.12 -276.47,109.31 -452.49,280.11 -580.09,545.31 -147.8,307.2 -142.95,636.41 8.95,939.27z"/>
  <path class="fil1" d="M2737.51 868.73l0 -535.6 108.46 0 0 210.95 210.95 0 0 -210.95 108.47 0 0 535.6 -108.47 0 0 -234.14 -210.95 0 0 234.14 -108.46 0zm515.52 -198.86c0,-34.16 8.35,-67.19 25.18,-99.11 16.83,-32.05 40.64,-56.35 71.44,-73.19 30.79,-16.83 65.08,-25.3 103.1,-25.3 58.72,0 106.72,19.07 144.25,57.22 37.52,38.27 56.23,86.4 56.23,144.74 0,58.85 -18.95,107.59 -56.72,146.24 -37.9,38.65 -85.53,57.97 -143,57.97 -35.53,0 -69.44,-8.11 -101.73,-24.19 -32.16,-16.08 -56.72,-39.65 -73.56,-70.81 -16.83,-31.05 -25.18,-68.95 -25.18,-113.58zm105.48 5.49c0,38.53 9.1,68.07 27.3,88.52 18.32,20.57 40.77,30.8 67.57,30.8 26.68,0 49.12,-10.22 67.2,-30.8 18.08,-20.45 27.17,-50.24 27.17,-89.27 0,-38.02 -9.09,-67.32 -27.17,-87.77 -18.08,-20.57 -40.52,-30.79 -67.2,-30.79 -26.8,0 -49.25,10.22 -67.57,30.79 -18.2,20.45 -27.3,50 -27.3,88.52zm376.14 -194.86l224.91 0c46.13,0 80.54,8.35 103.48,25.18 22.94,16.83 34.41,42.26 34.41,76.17 0,21.7 -6.23,40.64 -18.82,56.73 -12.47,16.08 -28.3,26.8 -47.25,32.16 26.68,6.61 46.63,18.82 59.84,36.9 13.09,18.08 19.7,37.78 19.7,59.22 0,30.17 -11.09,54.74 -33.28,73.56 -22.19,18.83 -54.99,28.3 -98.37,28.3l-244.61 0 0 -388.23zm102.48 161.58l66.58 0c32.16,0 55.36,-3.99 69.7,-12.09 14.34,-8.1 21.57,-20.82 21.57,-38.15 0,-16.46 -6.73,-28.05 -20.08,-35.04 -13.33,-6.98 -37.03,-10.47 -71.19,-10.47l-66.58 0 0 95.75zm0 160.83l81.54 0c29.42,0 50.87,-3.49 64.34,-10.59 13.46,-7.11 20.2,-19.7 20.2,-38.03 0,-19.07 -7.73,-32.16 -23.19,-39.27 -15.34,-7.23 -45.38,-10.85 -90.02,-10.85l-52.86 0 0 98.74zm322.78 -133.03c0,-34.16 8.35,-67.19 25.18,-99.11 16.83,-32.05 40.64,-56.35 71.44,-73.19 30.79,-16.83 65.08,-25.3 103.1,-25.3 58.72,0 106.72,19.07 144.25,57.22 37.52,38.27 56.23,86.4 56.23,144.74 0,58.85 -18.95,107.59 -56.72,146.24 -37.9,38.65 -85.53,57.97 -143,57.97 -35.53,0 -69.44,-8.11 -101.73,-24.19 -32.16,-16.08 -56.72,-39.65 -73.56,-70.81 -16.83,-31.05 -25.18,-68.95 -25.18,-113.58zm105.48 5.49c0,38.53 9.1,68.07 27.3,88.52 18.32,20.57 40.77,30.8 67.57,30.8 26.68,0 49.12,-10.22 67.2,-30.8 18.08,-20.45 27.17,-50.24 27.17,-89.27 0,-38.02 -9.09,-67.32 -27.17,-87.77 -18.08,-20.57 -40.52,-30.79 -67.2,-30.79 -26.8,0 -49.25,10.22 -67.57,30.79 -18.2,20.45 -27.3,50 -27.3,88.52zm703.65 -79.67l-100.98 17.95c-3.37,-20.07 -11.1,-35.16 -23.2,-45.38 -12.09,-10.1 -27.67,-15.21 -46.87,-15.21 -25.56,0 -46,8.85 -61.22,26.55 -15.21,17.71 -22.82,47.25 -22.82,88.77 0,46.13 7.73,78.66 23.19,97.74 15.47,19.08 36.16,28.56 62.09,28.56 19.45,0 35.41,-5.61 47.75,-16.71 12.47,-11.1 21.2,-30.17 26.31,-57.35l100.98 17.2c-10.47,46.37 -30.55,81.41 -60.21,105.1 -29.68,23.69 -69.44,35.53 -119.44,35.53 -56.6,0 -101.85,-17.95 -135.52,-53.73 -33.79,-35.91 -50.62,-85.53 -50.62,-148.98 0,-64.21 16.96,-114.08 50.75,-149.86 33.78,-35.78 79.54,-53.61 137.26,-53.61 47.13,0 84.66,10.22 112.58,30.54 27.81,20.33 47.75,51.25 59.97,92.88zm31.54 -115.19l350.83 0 0 83.03 -124.17 0 0 305.2 -102.48 0 0 -305.2 -124.18 0 0 -83.03zm408.18 0l102.48 0 0 142.12 148.12 0 0 -142.12 102.48 0 0 388.23 -102.48 0 0 -163.07 -148.12 0 0 163.07 -102.48 0 0 -388.23zm432.37 189.37c0,-34.16 8.35,-67.19 25.18,-99.11 16.83,-32.05 40.64,-56.35 71.44,-73.19 30.79,-16.83 65.08,-25.3 103.1,-25.3 58.72,0 106.72,19.07 144.25,57.22 37.52,38.27 56.23,86.4 56.23,144.74 0,58.85 -18.95,107.59 -56.72,146.24 -37.9,38.65 -85.53,57.97 -143,57.97 -35.53,0 -69.44,-8.11 -101.73,-24.19 -32.16,-16.08 -56.72,-39.65 -73.56,-70.81 -16.83,-31.05 -25.18,-68.95 -25.18,-113.58zm105.48 5.49c0,38.53 9.1,68.07 27.3,88.52 18.32,20.57 40.77,30.8 67.57,30.8 26.68,0 49.12,-10.22 67.2,-30.8 18.08,-20.45 27.17,-50.24 27.17,-89.27 0,-38.02 -9.09,-67.32 -27.17,-87.77 -18.08,-20.57 -40.52,-30.79 -67.2,-30.79 -26.8,0 -49.25,10.22 -67.57,30.79 -18.2,20.45 -27.3,50 -27.3,88.52zm599.8 70.69l102.48 17.2c-13.09,37.53 -33.92,66.08 -62.21,85.78 -28.43,19.57 -63.96,29.42 -106.47,29.42 -67.45,0 -117.44,-22.07 -149.73,-66.21 -25.56,-35.4 -38.4,-80.04 -38.4,-134.02 0,-64.33 16.83,-114.82 50.37,-151.23 33.54,-36.53 76.05,-54.73 127.42,-54.73 57.6,0 103.11,19.07 136.52,57.22 33.28,38.15 49.24,96.62 47.75,175.42l-256.58 0c0.74,30.42 8.98,54.1 24.81,71.06 15.71,16.96 35.41,25.44 58.85,25.44 16.08,0 29.55,-4.37 40.39,-13.1 10.97,-8.72 19.2,-22.81 24.81,-42.26zm5.98 -103.98c-0.75,-29.8 -8.35,-52.49 -22.94,-67.95 -14.58,-15.58 -32.29,-23.31 -53.24,-23.31 -22.31,0 -40.77,8.23 -55.35,24.56 -14.59,16.33 -21.7,38.65 -21.44,66.7l152.97 0zm-3739.31 957.18l-92.76 -16.46c10.48,-37.9 28.56,-65.95 54.11,-84.15 25.56,-18.21 63.59,-27.3 113.95,-27.3 45.75,0 79.91,5.36 102.36,16.2 22.31,10.85 38.15,24.56 47.25,41.27 9.09,16.71 13.71,47.26 13.71,91.89l-1.5 119.69c0,34.03 1.63,59.22 4.86,75.43 3.24,16.21 9.35,33.54 18.32,51.99l-101.73 0c-2.61,-6.73 -5.98,-16.71 -9.84,-29.92 -1.62,-6.11 -2.87,-10.1 -3.62,-11.97 -17.46,17.2 -36.16,30.05 -56.1,38.65 -19.95,8.61 -41.15,12.97 -63.71,12.97 -39.77,0 -71.19,-10.85 -94.13,-32.54 -22.93,-21.57 -34.41,-49 -34.41,-82.16 0,-21.81 5.23,-41.38 15.71,-58.6 10.47,-17.08 25.06,-30.29 44.01,-39.4 18.83,-9.1 46,-17.08 81.54,-23.94 47.87,-8.98 81.16,-17.46 99.61,-25.18l0 -10.34c0,-19.95 -4.86,-34.16 -14.58,-42.77 -9.85,-8.48 -28.3,-12.72 -55.36,-12.72 -18.32,0 -32.53,3.62 -42.76,10.97 -10.35,7.23 -18.58,20.07 -24.94,38.4zm137.64 83.03c-13.09,4.37 -33.91,9.6 -62.46,15.71 -28.43,6.11 -47.12,12.09 -55.86,17.83 -13.34,9.6 -20.07,21.57 -20.07,36.16 0,14.46 5.36,26.8 16.08,37.27 10.72,10.48 24.31,15.71 40.9,15.71 18.45,0 36.15,-6.11 52.98,-18.21 12.34,-9.35 20.57,-20.57 24.43,-34.03 2.62,-8.72 3.99,-25.43 3.99,-49.99l0 -20.45zm197.61 -202.72l262.57 0 0 83.03 -160.08 0 0 305.2 -102.48 0 0 -388.23zm540.46 265.55l102.48 17.2c-13.09,37.53 -33.92,66.08 -62.21,85.78 -28.43,19.57 -63.96,29.42 -106.47,29.42 -67.45,0 -117.44,-22.07 -149.73,-66.21 -25.56,-35.4 -38.4,-80.04 -38.4,-134.02 0,-64.33 16.83,-114.82 50.37,-151.23 33.54,-36.53 76.05,-54.73 127.42,-54.73 57.6,0 103.11,19.07 136.52,57.22 33.28,38.15 49.24,96.62 47.75,175.42l-256.58 0c0.74,30.42 8.98,54.1 24.81,71.06 15.71,16.96 35.41,25.44 58.85,25.44 16.08,0 29.55,-4.37 40.39,-13.1 10.97,-8.72 19.2,-22.81 24.81,-42.26zm5.98 -103.98c-0.75,-29.8 -8.35,-52.49 -22.94,-67.95 -14.58,-15.58 -32.29,-23.31 -53.24,-23.31 -22.31,0 -40.77,8.23 -55.35,24.56 -14.59,16.33 -21.7,38.65 -21.44,66.7l152.97 0zm181.15 -161.58l102.48 0 0 142.12 148.12 0 0 -142.12 102.48 0 0 388.23 -102.48 0 0 -163.07 -148.12 0 0 163.07 -102.48 0 0 -388.23zm409.93 0l350.83 0 0 83.03 -124.17 0 0 305.2 -102.48 0 0 -305.2 -124.18 0 0 -83.03zm740.93 115.19l-100.98 17.95c-3.37,-20.07 -11.1,-35.16 -23.2,-45.38 -12.09,-10.1 -27.67,-15.21 -46.87,-15.21 -25.56,0 -46,8.85 -61.22,26.55 -15.21,17.71 -22.82,47.25 -22.82,88.77 0,46.13 7.73,78.66 23.19,97.74 15.47,19.08 36.16,28.56 62.09,28.56 19.45,0 35.41,-5.61 47.75,-16.71 12.47,-11.1 21.2,-30.17 26.31,-57.35l100.98 17.2c-10.47,46.37 -30.55,81.41 -60.21,105.1 -29.68,23.69 -69.44,35.53 -119.44,35.53 -56.6,0 -101.85,-17.95 -135.52,-53.73 -33.79,-35.91 -50.62,-85.53 -50.62,-148.98 0,-64.21 16.96,-114.08 50.75,-149.86 33.78,-35.78 79.54,-53.61 137.26,-53.61 47.13,0 84.66,10.22 112.58,30.54 27.81,20.33 47.75,51.25 59.97,92.88zm31.54 -115.19l350.83 0 0 83.03 -124.17 0 0 305.2 -102.48 0 0 -305.2 -124.18 0 0 -83.03zm413.42 0l224.91 0c46.13,0 80.54,8.35 103.48,25.18 22.94,16.83 34.41,42.26 34.41,76.17 0,21.7 -6.23,40.64 -18.82,56.73 -12.47,16.08 -28.3,26.8 -47.25,32.16 26.68,6.61 46.63,18.82 59.84,36.9 13.09,18.08 19.7,37.78 19.7,59.22 0,30.17 -11.09,54.74 -33.28,73.56 -22.19,18.83 -54.99,28.3 -98.37,28.3l-244.61 0 0 -388.23zm102.48 161.58l66.58 0c32.16,0 55.36,-3.99 69.7,-12.09 14.34,-8.1 21.57,-20.82 21.57,-38.15 0,-16.46 -6.73,-28.05 -20.08,-35.04 -13.33,-6.98 -37.03,-10.47 -71.19,-10.47l-66.58 0 0 95.75zm0 160.83l81.54 0c29.42,0 50.87,-3.49 64.34,-10.59 13.46,-7.11 20.2,-19.7 20.2,-38.03 0,-19.07 -7.73,-32.16 -23.19,-39.27 -15.34,-7.23 -45.38,-10.85 -90.02,-10.85l-52.86 0 0 98.74zm322.78 -133.03c0,-34.16 8.35,-67.19 25.18,-99.11 16.83,-32.05 40.64,-56.35 71.44,-73.19 30.79,-16.83 65.08,-25.3 103.1,-25.3 58.72,0 106.72,19.07 144.25,57.22 37.52,38.27 56.23,86.4 56.23,144.74 0,58.85 -18.95,107.59 -56.72,146.24 -37.9,38.65 -85.53,57.97 -143,57.97 -35.53,0 -69.44,-8.11 -101.73,-24.19 -32.16,-16.08 -56.72,-39.65 -73.56,-70.81 -16.83,-31.05 -25.18,-68.95 -25.18,-113.58zm105.48 5.49c0,38.53 9.1,68.07 27.3,88.52 18.32,20.57 40.77,30.8 67.57,30.8 26.68,0 49.12,-10.22 67.2,-30.8 18.08,-20.45 27.17,-50.24 27.17,-89.27 0,-38.02 -9.09,-67.32 -27.17,-87.77 -18.08,-20.57 -40.52,-30.79 -67.2,-30.79 -26.8,0 -49.25,10.22 -67.57,30.79 -18.2,20.45 -27.3,50 -27.3,88.52z"/>
 </g>
</svg>
